<svg width="17" height="17" viewBox="0 0 17 17" fill="none" xmlns="http://www.w3.org/2000/svg">
<path d="M2.8125 9.8125L2.375 9.375L1.5 8.5L2.375 7.625L2.8125 7.1875L3.25 6.75L4.125 5.875L5 6.75L6.75 5L5.875 4.125L6.75 3.25L7.1875 2.8125L7.625 2.375L8.5 1.5L9.375 2.375L9.8125 2.8125M2.8125 9.8125L3.25 10.25L4.125 11.125L5 10.25L6.75 12L5.875 12.875L6.75 13.75L7.1875 14.1875M2.8125 9.8125L4.125 8.5M5.44689 9.8125L6.21412 9.02203L4.37959 7.1875M9.8125 2.8125L10.25 3.25L11.125 4.125L10.25 5L12 6.75L12.875 5.875L13.75 6.75L14.1875 7.1875M9.8125 2.8125L8.5 4.125M9.8125 5.30452L8.96617 6.15085L7.1875 4.37218M7.1875 14.1875L7.625 14.625L8.5 15.5L9.375 14.625L10.25 13.75L11.125 12.875L10.25 12L12 10.25L12.875 11.125L13.75 10.25L14.1875 9.8125L14.625 9.375L15.5 8.5L14.625 7.625L14.1875 7.1875M7.1875 14.1875L8.5 12.875M14.1875 7.1875L12.875 8.5M11.6243 7.1875C11.3211 7.48559 10.7163 8.08326 10.7226 8.08919C10.7289 8.09513 11.8741 9.24054 12.4459 9.8125M7.1875 11.6085C7.44835 11.3293 7.9748 10.7773 7.99379 10.8022C8.01277 10.8271 9.21417 12.025 9.8125 12.6209M7.1875 9.8125L9.8125 7.1875" stroke="white"/>
</svg>
