<svg width="895" height="895" viewBox="0 0 895 895" fill="none" xmlns="http://www.w3.org/2000/svg">
<path d="M87.9688 530.469L60.3125 502.812L5 447.5L60.3125 392.188L87.9688 364.531L115.625 336.875L170.938 281.562L226.25 336.875L336.875 226.25L281.562 170.938L336.875 115.625L364.531 87.9688L392.188 60.3125L447.5 5L502.812 60.3125L530.469 87.9688M87.9688 530.469L115.625 558.125L170.938 613.438L226.25 558.125L336.875 668.75L281.562 724.062L336.875 779.375L364.531 807.031M87.9688 530.469L170.938 447.5M254.5 530.469L303 480.5L187.031 364.531M530.469 87.9688L558.125 115.625L613.438 170.938L558.125 226.25L668.75 336.875L724.062 281.562L779.375 336.875L807.031 364.531M530.469 87.9688L447.5 170.938M530.469 245.5L476.969 299L364.531 186.562M364.531 807.031L392.188 834.688L447.5 890L502.812 834.688L558.125 779.375L613.438 724.062L558.125 668.75L668.75 558.125L724.062 613.438L779.375 558.125L807.031 530.469L834.688 502.812L890 447.5L834.688 392.188L807.031 364.531M364.531 807.031L447.5 724.062M807.031 364.531L724.062 447.5M645 364.531C625.833 383.375 587.6 421.156 588 421.531C588.4 421.906 660.792 494.312 696.938 530.469M364.531 644C381.021 626.354 414.3 591.456 415.5 593.031C416.7 594.606 492.646 670.333 530.469 708M364.531 530.469L530.469 364.531" stroke="white" stroke-width="7"/>
</svg>
