<svg width="63" height="41" viewBox="0 0 63 41" fill="none" xmlns="http://www.w3.org/2000/svg">
<path d="M4.5561 25.2117L1.27039 26.0194V32.4809L4.5561 33.2886M4.5561 25.2117V33.2886M4.5561 25.2117V19.5578L8.69896 17.5386V22.7886V25.4136M4.5561 33.2886V36.9232L8.69896 38.5386V33.2886V30.6636M8.69896 25.4136V28.0386V30.6636M8.69896 25.4136H31.8418M8.69896 30.6636H31.8418M31.8418 25.4136V28.0386V30.6636M31.8418 25.4136V22.7886V17.5386L35.9847 19.154V22.7886M31.8418 30.6636V33.2886V38.5386L35.9847 36.5194V30.8655M35.9847 30.8655L39.2704 30.0578V23.5963L35.9847 22.7886M35.9847 30.8655V22.7886M28.2848 6.88559L24.9463 6.33537L22.404 12.2758L25.1069 14.3111M28.2848 6.88559L25.1069 14.3111M28.2848 6.88559L30.5093 1.68775L35.1125 1.4614L33.0469 6.28796L32.0141 8.70124M25.1069 14.3111L23.6769 17.6525L26.85 20.7677L28.9157 15.9411L29.9485 13.5278M32.0141 8.70124L30.9813 11.1145L29.9485 13.5278M32.0141 8.70124L53.2904 17.8068M29.9485 13.5278L51.2247 22.6334M53.2904 17.8068L52.2576 20.2201L51.2247 22.6334M53.2904 17.8068L54.3232 15.3935L56.3888 10.567L59.5619 13.6821L58.1319 17.0236M51.2247 22.6334L50.1919 25.0467L48.1263 29.8732L52.7295 29.6469L54.954 24.449M54.954 24.449L58.2925 24.9993L60.8348 19.0589L58.1319 17.0236M54.954 24.449L58.1319 17.0236" stroke="url(#paint0_linear_577_5145)" stroke-width="2"/>
<defs>
<linearGradient id="paint0_linear_577_5145" x1="31.0526" y1="1.4614" x2="31.0526" y2="38.5386" gradientUnits="userSpaceOnUse">
<stop stop-color="#CFF1FF"/>
<stop offset="0.905" stop-color="#9C63FB"/>
</linearGradient>
</defs>
</svg>
