<svg width="59" height="32" viewBox="0 0 59 32" fill="none" xmlns="http://www.w3.org/2000/svg">
<path d="M17 8.98156L18.5 2.98156H24.5L27 13.4816M29.5 23.9815L27 13.4816M27 13.4816L20.5 14.9815M29.5 4.48154L34 3.73155M38.5 2.98156L34 3.73155M34 3.73155L33.5 20.4815M31 19.0183L35.5 20.4999L40 21.9815M47.5 19.4816L39.5 18.4816L40.125 13.1066L40.75 7.73161L41.5 1.98166M45 1.98166L46 7.73161L49.75 8.35659M57 1.98166L53.5 8.98156L49.75 8.35659M49.75 8.35659L51 22.9817H42.5M2.5 2.98156L4.5 28.0183L18.5 19.0183C14.6667 12.685 5.7 2.18156 2.5 2.98156Z" stroke="white" stroke-width="4"/>
</svg>
