<svg width="135" height="133" viewBox="0 0 135 133" fill="none" xmlns="http://www.w3.org/2000/svg">
<rect width="135" height="133" rx="24" fill="white"/>
<path d="M30.5313 75.5313L27.6875 72.6875L22 67L27.6875 61.3125L30.5313 58.4688L33.375 55.625L39.0625 49.9375L44.75 55.625L56.125 44.25L50.4375 38.5625L56.125 32.875L58.9688 30.0313L61.8125 27.1875L67.5 21.5L73.1875 27.1875L76.0313 30.0313M30.5313 75.5313L33.375 78.375L39.0625 84.0625L44.75 78.375L56.125 89.75L50.4375 95.4375L56.125 101.125L58.9688 103.969M30.5313 75.5313L39.0625 67M47.6548 75.5313L52.6418 70.3932L40.7173 58.4688M76.0313 30.0313L78.875 32.875L84.5625 38.5625L78.875 44.25L90.25 55.625L95.9375 49.9375L101.625 55.625L104.469 58.4688M76.0313 30.0313L67.5 38.5625M76.0313 46.2294L70.5301 51.7305L58.9688 40.1691M58.9688 103.969L61.8125 106.813L67.5 112.5L73.1875 106.813L78.875 101.125L84.5625 95.4375L78.875 89.75L90.25 78.375L95.9375 84.0625L101.625 78.375L104.469 75.5313L107.313 72.6875L113 67L107.313 61.3125L104.469 58.4688M58.9688 103.969L67.5 95.4375M104.469 58.4688L95.9375 67M87.8079 58.4688C85.8371 60.4064 81.9058 64.2912 81.9469 64.3298C81.988 64.3683 89.4317 71.8135 93.1484 75.5313M58.9688 87.2051C60.6643 85.3907 64.0862 81.8023 64.2096 81.9642C64.333 82.1262 72.1421 89.9128 76.0313 93.7859M58.9688 75.5313L76.0313 58.4688" stroke="black" stroke-width="2"/>
</svg>
