<svg width="58" height="47" viewBox="0 0 58 47" fill="none" xmlns="http://www.w3.org/2000/svg">
<path d="M26.3715 7.25807H22.6246L24.498 1.74194H30.1185V7.25807H26.3715ZM26.3715 7.25807C24.498 9.09678 20.8135 13.3871 21.0633 15.8387C21.3131 18.2903 21.1674 20.129 21.0633 20.7419C25.2266 18.2903 34.0529 13.8774 36.0512 15.8387C34.0736 12.6721 29.3691 6.52259 26.3715 7.25807ZM6.87325 30.7742H3.12629L4.99977 25.2581H10.6202V30.7742H7.94757M6.87325 30.7742H7.94757M6.87325 30.7742C4.99977 32.6129 1.31527 36.9032 1.56506 39.3548C1.81486 41.8065 1.66915 43.6452 1.56506 44.2581C5.72838 41.8065 14.5546 37.3936 16.553 39.3548C14.7987 36.5457 10.8985 31.3894 7.94757 30.7742M6.87325 30.7742C7.21172 30.6912 7.57196 30.6959 7.94757 30.7742M46.8725 30.7742H43.1255L44.999 25.2581H50.6194V30.7742H47.9468M46.8725 30.7742H47.9468M46.8725 30.7742C44.999 32.6129 41.3145 36.9032 41.5643 39.3548C41.8141 41.8065 41.6684 43.6452 41.5643 44.2581C45.7276 41.8065 54.5538 37.3936 56.5522 39.3548C54.7979 36.5457 50.8977 31.3894 47.9468 30.7742M46.8725 30.7742C47.211 30.6912 47.5712 30.6959 47.9468 30.7742M28.553 22.2419V27.7419M28.553 27.7419L21.0633 33.2419M28.553 27.7419L37.553 33.2419" stroke="white" stroke-width="2"/>
</svg>
