<svg width="25" height="24" viewBox="0 0 25 24" fill="none" xmlns="http://www.w3.org/2000/svg">
<path d="M3.5625 14.0625L2.875 13.375L1.5 12L2.875 10.625L3.5625 9.9375L4.25 9.25L5.625 7.875L7 9.25L9.75 6.5L8.375 5.125L9.75 3.75L10.4375 3.0625L11.125 2.375L12.5 1L13.875 2.375L14.5625 3.0625M3.5625 14.0625L4.25 14.75L5.625 16.125L7 14.75L9.75 17.5L8.375 18.875L9.75 20.25L10.4375 20.9375M3.5625 14.0625L5.625 12M7.70226 14.0625L8.90791 12.8203L6.02507 9.9375M14.5625 3.0625L15.25 3.75L16.625 5.125L15.25 6.5L18 9.25L19.375 7.875L20.75 9.25L21.4375 9.9375M14.5625 3.0625L12.5 5.125M14.5625 6.97853L13.2326 8.30847L10.4375 5.51342M10.4375 20.9375L11.125 21.625L12.5 23L13.875 21.625L15.25 20.25L16.625 18.875L15.25 17.5L18 14.75L19.375 16.125L20.75 14.75L21.4375 14.0625L22.125 13.375L23.5 12L22.125 10.625L21.4375 9.9375M10.4375 20.9375L12.5 18.875M21.4375 9.9375L19.375 12M17.4096 9.9375C16.9331 10.4059 15.9827 11.3451 15.9927 11.3544C16.0026 11.3638 17.8022 13.1637 18.7007 14.0625M10.4375 16.8847C10.8474 16.4461 11.6747 15.5786 11.7045 15.6177C11.7344 15.6569 13.6223 17.5394 14.5625 18.4757M10.4375 14.0625L14.5625 9.9375" stroke="white"/>
</svg>
